<svg id="visual" viewBox="0 0 1280 128" width="1280" height="128" xmlns="http://www.w3.org/2000/svg" xmlns:xlink="http://www.w3.org/1999/xlink" version="1.1"><rect x="0" y="0" width="1280" height="128" fill="#212121"></rect><path d="M0 61L19.3 59.3C38.7 57.7 77.3 54.3 116.2 49.3C155 44.3 194 37.7 232.8 40.7C271.7 43.7 310.3 56.3 349 60.2C387.7 64 426.3 59 465.2 56.2C504 53.3 543 52.7 581.8 53C620.7 53.3 659.3 54.7 698.2 54C737 53.3 776 50.7 814.8 51.7C853.7 52.7 892.3 57.3 931 54.7C969.7 52 1008.3 42 1047.2 39.2C1086 36.3 1125 40.7 1163.8 45.3C1202.7 50 1241.3 55 1260.7 57.5L1280 60L1280 129L1260.7 129C1241.3 129 1202.7 129 1163.8 129C1125 129 1086 129 1047.2 129C1008.3 129 969.7 129 931 129C892.3 129 853.7 129 814.8 129C776 129 737 129 698.2 129C659.3 129 620.7 129 581.8 129C543 129 504 129 465.2 129C426.3 129 387.7 129 349 129C310.3 129 271.7 129 232.8 129C194 129 155 129 116.2 129C77.3 129 38.7 129 19.3 129L0 129Z" fill="#5d5d5d"></path><path d="M0 75L19.3 72.5C38.7 70 77.3 65 116.2 64.3C155 63.7 194 67.3 232.8 69.2C271.7 71 310.3 71 349 68.7C387.7 66.3 426.3 61.7 465.2 63C504 64.3 543 71.7 581.8 73.8C620.7 76 659.3 73 698.2 74C737 75 776 80 814.8 80.2C853.7 80.3 892.3 75.7 931 71.2C969.7 66.7 1008.3 62.3 1047.2 60.2C1086 58 1125 58 1163.8 59.8C1202.7 61.7 1241.3 65.3 1260.7 67.2L1280 69L1280 129L1260.7 129C1241.3 129 1202.7 129 1163.8 129C1125 129 1086 129 1047.2 129C1008.3 129 969.7 129 931 129C892.3 129 853.7 129 814.8 129C776 129 737 129 698.2 129C659.3 129 620.7 129 581.8 129C543 129 504 129 465.2 129C426.3 129 387.7 129 349 129C310.3 129 271.7 129 232.8 129C194 129 155 129 116.2 129C77.3 129 38.7 129 19.3 129L0 129Z" fill="#b35f3c"></path><path d="M0 95L19.3 96.8C38.7 98.7 77.3 102.3 116.2 102.2C155 102 194 98 232.8 98.3C271.7 98.7 310.3 103.3 349 102.7C387.7 102 426.3 96 465.2 92.2C504 88.3 543 86.7 581.8 86.5C620.7 86.3 659.3 87.7 698.2 90.7C737 93.7 776 98.3 814.8 100.7C853.7 103 892.3 103 931 102.7C969.7 102.3 1008.3 101.7 1047.2 98.8C1086 96 1125 91 1163.8 92C1202.7 93 1241.3 100 1260.7 103.5L1280 107L1280 129L1260.7 129C1241.3 129 1202.7 129 1163.8 129C1125 129 1086 129 1047.2 129C1008.3 129 969.7 129 931 129C892.3 129 853.7 129 814.8 129C776 129 737 129 698.2 129C659.3 129 620.7 129 581.8 129C543 129 504 129 465.2 129C426.3 129 387.7 129 349 129C310.3 129 271.7 129 232.8 129C194 129 155 129 116.2 129C77.3 129 38.7 129 19.3 129L0 129Z" fill="#ff5500"></path></svg>