<svg id="visual" viewBox="0 0 1280 128" width="1280" height="128" xmlns="http://www.w3.org/2000/svg" xmlns:xlink="http://www.w3.org/1999/xlink" version="1.1"><rect x="0" y="0" width="1280" height="128" fill="#000000" fill-opacity="0"></rect><path d="M0 49L10.7 49.7C21.3 50.3 42.7 51.7 64 53.2C85.3 54.7 106.7 56.3 128 57.8C149.3 59.3 170.7 60.7 192 59.5C213.3 58.3 234.7 54.7 256 52.8C277.3 51 298.7 51 320 50.8C341.3 50.7 362.7 50.3 384 50.2C405.3 50 426.7 50 448 51.3C469.3 52.7 490.7 55.3 512 56.3C533.3 57.3 554.7 56.7 576 55.3C597.3 54 618.7 52 640 53.5C661.3 55 682.7 60 704 59.5C725.3 59 746.7 53 768 51.8C789.3 50.7 810.7 54.3 832 54.3C853.3 54.3 874.7 50.7 896 49.3C917.3 48 938.7 49 960 49C981.3 49 1002.7 48 1024 49.5C1045.3 51 1066.7 55 1088 55.8C1109.3 56.7 1130.7 54.3 1152 54.3C1173.3 54.3 1194.7 56.7 1216 56.2C1237.3 55.7 1258.7 52.3 1269.3 50.7L1280 49L1280 129L1269.3 129C1258.7 129 1237.3 129 1216 129C1194.7 129 1173.3 129 1152 129C1130.7 129 1109.3 129 1088 129C1066.7 129 1045.3 129 1024 129C1002.7 129 981.3 129 960 129C938.7 129 917.3 129 896 129C874.7 129 853.3 129 832 129C810.7 129 789.3 129 768 129C746.7 129 725.3 129 704 129C682.7 129 661.3 129 640 129C618.7 129 597.3 129 576 129C554.7 129 533.3 129 512 129C490.7 129 469.3 129 448 129C426.7 129 405.3 129 384 129C362.7 129 341.3 129 320 129C298.7 129 277.3 129 256 129C234.7 129 213.3 129 192 129C170.7 129 149.3 129 128 129C106.7 129 85.3 129 64 129C42.7 129 21.3 129 10.7 129L0 129Z" fill="#000000"></path><path d="M0 74L10.7 75.2C21.3 76.3 42.7 78.7 64 77C85.3 75.3 106.7 69.7 128 66.8C149.3 64 170.7 64 192 67.2C213.3 70.3 234.7 76.7 256 80C277.3 83.3 298.7 83.7 320 82.5C341.3 81.3 362.7 78.7 384 77.8C405.3 77 426.7 78 448 75.8C469.3 73.7 490.7 68.3 512 67.3C533.3 66.3 554.7 69.7 576 72.7C597.3 75.7 618.7 78.3 640 77C661.3 75.7 682.7 70.3 704 69.8C725.3 69.3 746.7 73.7 768 73.5C789.3 73.3 810.7 68.7 832 68C853.3 67.3 874.7 70.7 896 71.2C917.3 71.7 938.7 69.3 960 68C981.3 66.7 1002.7 66.3 1024 69C1045.3 71.7 1066.7 77.3 1088 77.2C1109.3 77 1130.7 71 1152 69.2C1173.3 67.3 1194.7 69.7 1216 71.8C1237.3 74 1258.7 76 1269.3 77L1280 78L1280 129L1269.3 129C1258.7 129 1237.3 129 1216 129C1194.7 129 1173.3 129 1152 129C1130.7 129 1109.3 129 1088 129C1066.7 129 1045.3 129 1024 129C1002.7 129 981.3 129 960 129C938.7 129 917.3 129 896 129C874.7 129 853.3 129 832 129C810.7 129 789.3 129 768 129C746.7 129 725.3 129 704 129C682.7 129 661.3 129 640 129C618.7 129 597.3 129 576 129C554.7 129 533.3 129 512 129C490.7 129 469.3 129 448 129C426.7 129 405.3 129 384 129C362.7 129 341.3 129 320 129C298.7 129 277.3 129 256 129C234.7 129 213.3 129 192 129C170.7 129 149.3 129 128 129C106.7 129 85.3 129 64 129C42.7 129 21.3 129 10.7 129L0 129Z" fill="#000023"></path><path d="M0 99L10.7 96.7C21.3 94.3 42.7 89.7 64 89.7C85.3 89.7 106.7 94.3 128 94.7C149.3 95 170.7 91 192 89.2C213.3 87.3 234.7 87.7 256 90C277.3 92.3 298.7 96.7 320 95.8C341.3 95 362.7 89 384 89C405.3 89 426.7 95 448 96C469.3 97 490.7 93 512 92C533.3 91 554.7 93 576 92.3C597.3 91.7 618.7 88.3 640 88.3C661.3 88.3 682.7 91.7 704 93.8C725.3 96 746.7 97 768 95.2C789.3 93.3 810.7 88.7 832 88.7C853.3 88.7 874.7 93.3 896 95.2C917.3 97 938.7 96 960 94.3C981.3 92.7 1002.7 90.3 1024 89.7C1045.3 89 1066.7 90 1088 89.5C1109.3 89 1130.7 87 1152 87.5C1173.3 88 1194.7 91 1216 91.8C1237.3 92.7 1258.7 91.3 1269.3 90.7L1280 90L1280 129L1269.3 129C1258.7 129 1237.3 129 1216 129C1194.7 129 1173.3 129 1152 129C1130.7 129 1109.3 129 1088 129C1066.7 129 1045.3 129 1024 129C1002.7 129 981.3 129 960 129C938.7 129 917.3 129 896 129C874.7 129 853.3 129 832 129C810.7 129 789.3 129 768 129C746.7 129 725.3 129 704 129C682.7 129 661.3 129 640 129C618.7 129 597.3 129 576 129C554.7 129 533.3 129 512 129C490.7 129 469.3 129 448 129C426.7 129 405.3 129 384 129C362.7 129 341.3 129 320 129C298.7 129 277.3 129 256 129C234.7 129 213.3 129 192 129C170.7 129 149.3 129 128 129C106.7 129 85.3 129 64 129C42.7 129 21.3 129 10.7 129L0 129Z" fill="#010425"></path><path d="M0 119L10.7 118.2C21.3 117.3 42.7 115.7 64 114.3C85.3 113 106.7 112 128 110.3C149.3 108.7 170.7 106.3 192 106.2C213.3 106 234.7 108 256 107.3C277.3 106.7 298.7 103.3 320 101.7C341.3 100 362.7 100 384 102C405.3 104 426.7 108 448 110.8C469.3 113.7 490.7 115.3 512 116.3C533.3 117.3 554.7 117.7 576 116.5C597.3 115.3 618.7 112.7 640 111C661.3 109.3 682.7 108.7 704 109.7C725.3 110.7 746.7 113.3 768 113.7C789.3 114 810.7 112 832 110C853.3 108 874.7 106 896 106.7C917.3 107.3 938.7 110.7 960 111.3C981.3 112 1002.7 110 1024 109.5C1045.3 109 1066.7 110 1088 111.3C1109.3 112.7 1130.7 114.3 1152 113C1173.3 111.7 1194.7 107.3 1216 106.3C1237.3 105.3 1258.7 107.7 1269.3 108.8L1280 110L1280 129L1269.3 129C1258.7 129 1237.3 129 1216 129C1194.7 129 1173.3 129 1152 129C1130.7 129 1109.3 129 1088 129C1066.7 129 1045.3 129 1024 129C1002.7 129 981.3 129 960 129C938.7 129 917.3 129 896 129C874.7 129 853.3 129 832 129C810.7 129 789.3 129 768 129C746.7 129 725.3 129 704 129C682.7 129 661.3 129 640 129C618.7 129 597.3 129 576 129C554.7 129 533.3 129 512 129C490.7 129 469.3 129 448 129C426.7 129 405.3 129 384 129C362.7 129 341.3 129 320 129C298.7 129 277.3 129 256 129C234.7 129 213.3 129 192 129C170.7 129 149.3 129 128 129C106.7 129 85.3 129 64 129C42.7 129 21.3 129 10.7 129L0 129Z" fill="#020727"></path></svg>