<svg id="visual" viewBox="0 0 1280 128" width="1280" height="128" xmlns="http://www.w3.org/2000/svg" xmlns:xlink="http://www.w3.org/1999/xlink" version="1.1"><rect x="0" y="0" width="1280" height="128" fill="#020727"></rect><path d="M0 39L9.3 43.5C18.7 48 37.3 57 55.8 60.8C74.3 64.7 92.7 63.3 111.2 58.5C129.7 53.7 148.3 45.3 167 40.8C185.7 36.3 204.3 35.7 222.8 34.7C241.3 33.7 259.7 32.3 278.2 36.7C296.7 41 315.3 51 334 53.8C352.7 56.7 371.3 52.3 389.8 52.7C408.3 53 426.7 58 445.2 57.7C463.7 57.3 482.3 51.7 501 50.5C519.7 49.3 538.3 52.7 556.8 56.2C575.3 59.7 593.7 63.3 612.2 59.5C630.7 55.7 649.3 44.3 667.8 43.2C686.3 42 704.7 51 723.2 54.7C741.7 58.3 760.3 56.7 779 56.2C797.7 55.7 816.3 56.3 834.8 57C853.3 57.7 871.7 58.3 890.2 57.3C908.7 56.3 927.3 53.7 946 53C964.7 52.3 983.3 53.7 1001.8 54.8C1020.3 56 1038.7 57 1057.2 52.8C1075.7 48.7 1094.3 39.3 1113 40.5C1131.7 41.7 1150.3 53.3 1168.8 53.8C1187.3 54.3 1205.7 43.7 1224.2 39.7C1242.7 35.7 1261.3 38.3 1270.7 39.7L1280 41L1280 129L1270.7 129C1261.3 129 1242.7 129 1224.2 129C1205.7 129 1187.3 129 1168.8 129C1150.3 129 1131.7 129 1113 129C1094.3 129 1075.7 129 1057.2 129C1038.7 129 1020.3 129 1001.8 129C983.3 129 964.7 129 946 129C927.3 129 908.7 129 890.2 129C871.7 129 853.3 129 834.8 129C816.3 129 797.7 129 779 129C760.3 129 741.7 129 723.2 129C704.7 129 686.3 129 667.8 129C649.3 129 630.7 129 612.2 129C593.7 129 575.3 129 556.8 129C538.3 129 519.7 129 501 129C482.3 129 463.7 129 445.2 129C426.7 129 408.3 129 389.8 129C371.3 129 352.7 129 334 129C315.3 129 296.7 129 278.2 129C259.7 129 241.3 129 222.8 129C204.3 129 185.7 129 167 129C148.3 129 129.7 129 111.2 129C92.7 129 74.3 129 55.8 129C37.3 129 18.7 129 9.3 129L0 129Z" fill="#223154"></path><path d="M0 63L9.3 65.7C18.7 68.3 37.3 73.7 55.8 77C74.3 80.3 92.7 81.7 111.2 79.8C129.7 78 148.3 73 167 71.8C185.7 70.7 204.3 73.3 222.8 72.5C241.3 71.7 259.7 67.3 278.2 67.3C296.7 67.3 315.3 71.7 334 74.7C352.7 77.7 371.3 79.3 389.8 81C408.3 82.7 426.7 84.3 445.2 81C463.7 77.7 482.3 69.3 501 66.5C519.7 63.7 538.3 66.3 556.8 69.2C575.3 72 593.7 75 612.2 77.2C630.7 79.3 649.3 80.7 667.8 77.2C686.3 73.7 704.7 65.3 723.2 64.8C741.7 64.3 760.3 71.7 779 73.7C797.7 75.7 816.3 72.3 834.8 70C853.3 67.7 871.7 66.3 890.2 67.7C908.7 69 927.3 73 946 76.5C964.7 80 983.3 83 1001.8 82.7C1020.3 82.3 1038.7 78.7 1057.2 78.7C1075.7 78.7 1094.3 82.3 1113 83.7C1131.7 85 1150.3 84 1168.8 81.8C1187.3 79.7 1205.7 76.3 1224.2 72.7C1242.7 69 1261.3 65 1270.7 63L1280 61L1280 129L1270.7 129C1261.3 129 1242.7 129 1224.2 129C1205.7 129 1187.3 129 1168.8 129C1150.3 129 1131.7 129 1113 129C1094.3 129 1075.7 129 1057.2 129C1038.7 129 1020.3 129 1001.8 129C983.3 129 964.7 129 946 129C927.3 129 908.7 129 890.2 129C871.7 129 853.3 129 834.8 129C816.3 129 797.7 129 779 129C760.3 129 741.7 129 723.2 129C704.7 129 686.3 129 667.8 129C649.3 129 630.7 129 612.2 129C593.7 129 575.3 129 556.8 129C538.3 129 519.7 129 501 129C482.3 129 463.7 129 445.2 129C426.7 129 408.3 129 389.8 129C371.3 129 352.7 129 334 129C315.3 129 296.7 129 278.2 129C259.7 129 241.3 129 222.8 129C204.3 129 185.7 129 167 129C148.3 129 129.7 129 111.2 129C92.7 129 74.3 129 55.8 129C37.3 129 18.7 129 9.3 129L0 129Z" fill="#243db2"></path><path d="M0 88L9.3 88C18.7 88 37.3 88 55.8 90.5C74.3 93 92.7 98 111.2 97.7C129.7 97.3 148.3 91.7 167 88.8C185.7 86 204.3 86 222.8 88.8C241.3 91.7 259.7 97.3 278.2 98.8C296.7 100.3 315.3 97.7 334 98.2C352.7 98.7 371.3 102.3 389.8 102C408.3 101.7 426.7 97.3 445.2 95.5C463.7 93.7 482.3 94.3 501 94C519.7 93.7 538.3 92.3 556.8 90.5C575.3 88.7 593.7 86.3 612.2 87.3C630.7 88.3 649.3 92.7 667.8 94.8C686.3 97 704.7 97 723.2 98.5C741.7 100 760.3 103 779 102.7C797.7 102.3 816.3 98.7 834.8 96C853.3 93.3 871.7 91.7 890.2 91.8C908.7 92 927.3 94 946 95.5C964.7 97 983.3 98 1001.8 97.3C1020.3 96.7 1038.7 94.3 1057.2 92.7C1075.7 91 1094.3 90 1113 89.3C1131.7 88.7 1150.3 88.3 1168.8 89C1187.3 89.7 1205.7 91.3 1224.2 92.7C1242.7 94 1261.3 95 1270.7 95.5L1280 96L1280 129L1270.7 129C1261.3 129 1242.7 129 1224.2 129C1205.7 129 1187.3 129 1168.8 129C1150.3 129 1131.7 129 1113 129C1094.3 129 1075.7 129 1057.2 129C1038.7 129 1020.3 129 1001.8 129C983.3 129 964.7 129 946 129C927.3 129 908.7 129 890.2 129C871.7 129 853.3 129 834.8 129C816.3 129 797.7 129 779 129C760.3 129 741.7 129 723.2 129C704.7 129 686.3 129 667.8 129C649.3 129 630.7 129 612.2 129C593.7 129 575.3 129 556.8 129C538.3 129 519.7 129 501 129C482.3 129 463.7 129 445.2 129C426.7 129 408.3 129 389.8 129C371.3 129 352.7 129 334 129C315.3 129 296.7 129 278.2 129C259.7 129 241.3 129 222.8 129C204.3 129 185.7 129 167 129C148.3 129 129.7 129 111.2 129C92.7 129 74.3 129 55.8 129C37.3 129 18.7 129 9.3 129L0 129Z" fill="#8615ff"></path></svg>