<svg id="visual" viewBox="0 0 1280 128" width="1280" height="128" xmlns="http://www.w3.org/2000/svg" xmlns:xlink="http://www.w3.org/1999/xlink" version="1.1"><rect x="0" y="0" width="1280" height="128" fill="#020727"></rect><path d="M0 55L11.2 55.7C22.3 56.3 44.7 57.7 67.2 57.2C89.7 56.7 112.3 54.3 134.8 55.5C157.3 56.7 179.7 61.3 202 60.8C224.3 60.3 246.7 54.7 269.2 50.3C291.7 46 314.3 43 336.8 42.5C359.3 42 381.7 44 404.2 44.7C426.7 45.3 449.3 44.7 471.8 47.2C494.3 49.7 516.7 55.3 539 54.7C561.3 54 583.7 47 606.2 47.8C628.7 48.7 651.3 57.3 673.8 57.8C696.3 58.3 718.7 50.7 741 45.7C763.3 40.7 785.7 38.3 808.2 40.7C830.7 43 853.3 50 875.8 50.8C898.3 51.7 920.7 46.3 943.2 46.3C965.7 46.3 988.3 51.7 1010.8 52.3C1033.3 53 1055.7 49 1078 47.2C1100.3 45.3 1122.7 45.7 1145.2 48.2C1167.7 50.7 1190.3 55.3 1212.8 56.5C1235.3 57.7 1257.7 55.3 1268.8 54.2L1280 53L1280 129L1268.8 129C1257.7 129 1235.3 129 1212.8 129C1190.3 129 1167.7 129 1145.2 129C1122.7 129 1100.3 129 1078 129C1055.7 129 1033.3 129 1010.8 129C988.3 129 965.7 129 943.2 129C920.7 129 898.3 129 875.8 129C853.3 129 830.7 129 808.2 129C785.7 129 763.3 129 741 129C718.7 129 696.3 129 673.8 129C651.3 129 628.7 129 606.2 129C583.7 129 561.3 129 539 129C516.7 129 494.3 129 471.8 129C449.3 129 426.7 129 404.2 129C381.7 129 359.3 129 336.8 129C314.3 129 291.7 129 269.2 129C246.7 129 224.3 129 202 129C179.7 129 157.3 129 134.8 129C112.3 129 89.7 129 67.2 129C44.7 129 22.3 129 11.2 129L0 129Z" fill="#010717"></path><path d="M0 83L11.2 79.2C22.3 75.3 44.7 67.7 67.2 64.2C89.7 60.7 112.3 61.3 134.8 61.8C157.3 62.3 179.7 62.7 202 64C224.3 65.3 246.7 67.7 269.2 70.2C291.7 72.7 314.3 75.3 336.8 75.7C359.3 76 381.7 74 404.2 73C426.7 72 449.3 72 471.8 74.8C494.3 77.7 516.7 83.3 539 85.5C561.3 87.7 583.7 86.3 606.2 85C628.7 83.7 651.3 82.3 673.8 80.3C696.3 78.3 718.7 75.7 741 74.3C763.3 73 785.7 73 808.2 75.7C830.7 78.3 853.3 83.7 875.8 81.7C898.3 79.7 920.7 70.3 943.2 68C965.7 65.7 988.3 70.3 1010.8 71C1033.3 71.7 1055.7 68.3 1078 69.2C1100.3 70 1122.7 75 1145.2 73.8C1167.7 72.7 1190.3 65.3 1212.8 63.2C1235.3 61 1257.7 64 1268.8 65.5L1280 67L1280 129L1268.8 129C1257.7 129 1235.3 129 1212.8 129C1190.3 129 1167.7 129 1145.2 129C1122.7 129 1100.3 129 1078 129C1055.7 129 1033.3 129 1010.8 129C988.3 129 965.7 129 943.2 129C920.7 129 898.3 129 875.8 129C853.3 129 830.7 129 808.2 129C785.7 129 763.3 129 741 129C718.7 129 696.3 129 673.8 129C651.3 129 628.7 129 606.2 129C583.7 129 561.3 129 539 129C516.7 129 494.3 129 471.8 129C449.3 129 426.7 129 404.2 129C381.7 129 359.3 129 336.8 129C314.3 129 291.7 129 269.2 129C246.7 129 224.3 129 202 129C179.7 129 157.3 129 134.8 129C112.3 129 89.7 129 67.2 129C44.7 129 22.3 129 11.2 129L0 129Z" fill="#000315"></path><path d="M0 108L11.2 105C22.3 102 44.7 96 67.2 92C89.7 88 112.3 86 134.8 85.3C157.3 84.7 179.7 85.3 202 89.7C224.3 94 246.7 102 269.2 104.5C291.7 107 314.3 104 336.8 101.2C359.3 98.3 381.7 95.7 404.2 97.3C426.7 99 449.3 105 471.8 107.7C494.3 110.3 516.7 109.7 539 108.8C561.3 108 583.7 107 606.2 104.3C628.7 101.7 651.3 97.3 673.8 94.2C696.3 91 718.7 89 741 91.8C763.3 94.7 785.7 102.3 808.2 105.2C830.7 108 853.3 106 875.8 105.5C898.3 105 920.7 106 943.2 106.2C965.7 106.3 988.3 105.7 1010.8 105.2C1033.3 104.7 1055.7 104.3 1078 103.2C1100.3 102 1122.7 100 1145.2 99.5C1167.7 99 1190.3 100 1212.8 100.8C1235.3 101.7 1257.7 102.3 1268.8 102.7L1280 103L1280 129L1268.8 129C1257.7 129 1235.3 129 1212.8 129C1190.3 129 1167.7 129 1145.2 129C1122.7 129 1100.3 129 1078 129C1055.7 129 1033.3 129 1010.8 129C988.3 129 965.7 129 943.2 129C920.7 129 898.3 129 875.8 129C853.3 129 830.7 129 808.2 129C785.7 129 763.3 129 741 129C718.7 129 696.3 129 673.8 129C651.3 129 628.7 129 606.2 129C583.7 129 561.3 129 539 129C516.7 129 494.3 129 471.8 129C449.3 129 426.7 129 404.2 129C381.7 129 359.3 129 336.8 129C314.3 129 291.7 129 269.2 129C246.7 129 224.3 129 202 129C179.7 129 157.3 129 134.8 129C112.3 129 89.7 129 67.2 129C44.7 129 22.3 129 11.2 129L0 129Z" fill="#000000"></path></svg>